<svg width="51" height="51" viewBox="0 0 51 51" fill="none" xmlns="http://www.w3.org/2000/svg">
<g id="Group">
<path id="Vector" fill-rule="evenodd" clip-rule="evenodd" d="M49.7609 37.2182L49.5347 37.7995C45.6804 45.2423 38.8501 49.8084 29.1079 50.0098C24.5536 50.1029 20.2143 48.9441 17.3795 47.6843C11.2621 44.9589 6.11647 39.9046 3.30648 34.5044C-0.724526 26.7632 -1.4515 15.9946 6.9301 7.95154C7.05952 7.95154 5.91335 9.69562 6.04276 9.69562L5.81207 10.4399C-0.227684 29.1896 18.3805 45.2579 36.4694 43.4201C40.8166 42.9782 46.3601 40.6176 49.7609 37.2182Z" fill="#21609B"/>
<path id="Vector_2" fill-rule="evenodd" clip-rule="evenodd" d="M38.8146 29.4652C43.3656 29.4959 48.119 27.3869 50.9341 24.426C48.4713 30.6246 41.3405 34.6087 31.7784 33.3417C23.7715 32.2794 16.1445 24.2904 15.359 16.2853C14.7845 10.4594 16.8321 6.98242 20.2064 2.7645C19.0338 4.97054 18.5955 6.67166 18.4863 7.75683C17.2046 20.3593 28.6392 29.3988 38.8146 29.4652Z" fill="#21609B"/>
<path id="Vector_3" fill-rule="evenodd" clip-rule="evenodd" d="M50.4766 13.812C49.7694 15.4211 45.6962 18.4595 43.8973 18.8395C36.7744 20.3442 32.2128 16.995 29.8231 13.1838C29.4681 12.6147 28.8114 11.0603 28.6938 10.6647C27.7671 7.54034 28.193 2.8147 30.9575 0.368744C30.1247 2.69474 30.0032 5.39623 30.4415 7.15258C30.7071 8.21432 31.5162 10.0683 32.3259 11.2344C33.799 13.3584 34.7336 13.8745 36.6258 15.0026C37.4783 15.5103 38.3926 15.9176 38.7876 16.0292C40.582 16.5531 44.3699 17.9328 50.4766 13.812Z" fill="#21609B"/>
</g>
</svg>
