<svg width="231" height="65" viewBox="0 0 231 65" fill="none" xmlns="http://www.w3.org/2000/svg">
<g id="Group">
<path id="Vector" fill-rule="evenodd" clip-rule="evenodd" d="M218.399 4.9386L230.452 5.00443C230.452 5.00443 208.044 35.1124 206.214 37.5662C205.62 38.3607 204.717 39.2176 204.259 40.2799C203.102 42.9502 201.913 48.8079 201.913 48.8079L190.885 48.8625C190.885 48.8625 192.602 42.7566 192.531 39.5044C192.469 36.6635 191.006 33.8258 190.185 30.9765C189.356 28.092 188.23 22.448 188.23 22.448H199.568L201.132 28.6505L218.399 4.9386Z" fill="#1A1918"/>
<path id="Vector_2" fill-rule="evenodd" clip-rule="evenodd" d="M195.576 11.2884C197.801 12.6179 199.166 19.9524 199.166 19.9524C199.166 19.9524 187.527 20.1226 181.194 20.1226H175.721L169.074 48.8078H158.91C158.91 48.8078 165.236 17.6342 166.729 11.9824C167.213 10.1524 170.044 10.4665 174.826 10.4665H182.46C187.391 10.4665 193.153 9.84221 195.576 11.2884ZM148.257 25.2589C148.257 25.2589 148.574 23.4177 147.182 21.2853C145.994 19.4676 144.896 19.0447 141.768 18.9476C132.937 18.6725 133.108 25.1618 133.108 25.1618L148.257 25.2589ZM157.835 17.8273C159.129 22.4564 156.662 33.3332 156.662 33.3332C156.662 33.3332 143.781 33.12 136.725 33.3332C134.531 33.3996 131.905 33.0966 131.251 34.1087C130.333 35.5269 131.587 37.7101 132.651 38.6324C133.875 39.6941 136.259 39.8152 137.116 39.9229C142.843 40.6443 154.829 40.1092 154.829 40.1092L152.752 49.2257C152.752 49.2257 135.814 50.0682 127.342 48.063C125.669 47.668 124.101 46.8696 123.041 45.7376C122.752 45.4279 122.501 45.0056 122.228 44.6407C122.01 44.3494 121.373 43.3926 121.087 42.6361C119.152 37.5232 121.313 27.7282 123.433 22.4793C123.678 21.8711 123.987 21.0995 124.313 20.4439C124.719 19.6266 125.063 18.7038 125.387 18.215C125.606 17.878 125.876 17.661 126.103 17.343C126.365 16.9669 126.669 16.6026 126.951 16.2773C127.733 15.378 128.62 14.7419 129.688 13.9519C133.217 11.3308 139.605 9.296 147.28 10.0749C150.169 10.3695 154.533 11.3927 156.662 14.3391C157.233 15.1258 157.515 16.6874 157.835 17.8273ZM111.216 10.4308L121.072 10.3734C121.072 10.3734 115.579 36.2093 112.779 48.8078H101.442C93.5179 48.8078 86.4614 49.7809 83.459 44.1558C80.5466 38.6943 83.3262 29.7128 84.6316 23.6107C85.5544 19.2924 87.4979 10.466 87.4979 10.466L97.7093 10.3734C97.7093 10.3734 94.8239 24.1151 93.6232 30.9765C93.1933 33.4342 92.3065 35.7484 93.2327 37.5656C94.1121 39.2952 95.3438 39.419 99.0963 39.5044C100.285 39.5323 104.179 39.5044 104.179 39.5044L111.216 10.4308ZM65.0848 29.0377C66.1168 25.4022 67.6219 21.4599 67.4306 18.1838C67.2236 14.68 64.2605 11.4898 62.3486 10.8191C56.5901 8.80335 51.1992 11.6214 49.0565 13.9201C46.2848 16.8972 45.3462 20.3748 44.3649 25.1623C43.6346 28.7163 43.0359 32.4684 44.3649 35.2402C46.718 40.1404 54.0564 39.0703 61.9575 39.1172C63.1301 36.0006 64.0996 32.5002 65.0848 29.0377ZM78.768 14.6956C79.8933 22.8123 75.5742 31.7715 72.5988 39.5624C75.6328 39.8341 78.2914 39.5206 78.4827 39.7449C78.6819 40.0356 76.4492 49.0444 75.671 49.0678C73.2633 49.1298 65.2846 49.1956 61.9575 49.1956C51.1007 49.1956 40.9444 49.8969 35.765 44.5442C33.6617 42.3694 32.2072 38.6396 31.855 36.0157C31.2687 31.6354 32.0035 26.8127 33.0281 22.8363C33.9549 19.2461 35.1427 15.8583 36.9376 12.7568C41.4998 4.86104 49.4357 -0.999988 62.7391 0.352986C65.3195 0.616327 69.0253 1.73665 71.3401 3.06619C71.4999 3.15936 72.0598 3.60124 72.188 3.67879C75.316 5.65218 78.1659 10.3616 78.768 14.6956ZM30.733 10.4777C30.0764 13.4431 29.4197 16.8046 28.7276 19.7348H17.7814C18.6293 16.4866 19.2786 13.2573 20.1271 10.4314C23.6298 10.4314 26.8866 10.4777 30.7336 10.4777M17.3903 22.4486H27.9461C26.5658 30.023 23.8329 42.241 21.6908 50.7461C20.35 56.0687 19.4548 59.9524 15.8266 62.7627C15.502 63.0149 15.3146 62.895 15.0445 63.1505C14.376 63.7826 11.2836 64.5157 9.57193 64.701C6.78838 65 3.64134 64.74 0.220276 64.6703C1.11549 61.4259 2.12831 57.5299 2.92618 54.622C11.265 55.6229 11.476 47.8075 13.0903 40.2799C14.0244 35.9303 16.8552 24.1927 17.3903 22.4486Z" fill="#1A1918"/>
</g>
</svg>
